<mxfile host="app.diagrams.net" modified="2020-10-16T14:45:51.064Z" agent="5.0 (Macintosh)" etag="6s_kaGu3edbgQWxGFcrn" version="13.8.0" type="github">
  <diagram id="24tK4eoy2Iu6MReBhDtB" name="Page-1">
    <mxGraphModel dx="786" dy="450" grid="1" gridSize="10" guides="1" tooltips="1" connect="1" arrows="1" fold="1" page="1" pageScale="1" pageWidth="850" pageHeight="1100" math="0" shadow="0">
      <root>
        <mxCell id="0" />
        <mxCell id="1" parent="0" />
        <mxCell id="ZM4ehFQc3kPoHvRmAT9D-1" value="" style="strokeWidth=1;shadow=0;dashed=0;align=center;html=1;shape=mxgraph.mockup.containers.browserWindow;rSize=0;strokeColor=#666666;strokeColor2=#008cff;strokeColor3=#c4c4c4;mainText=,;recursiveResize=0;" parent="1" vertex="1">
          <mxGeometry x="20" y="10" width="790" height="550" as="geometry" />
        </mxCell>
        <mxCell id="ZM4ehFQc3kPoHvRmAT9D-2" value="Page 1" style="strokeWidth=1;shadow=0;dashed=0;align=center;html=1;shape=mxgraph.mockup.containers.anchor;fontSize=17;fontColor=#666666;align=left;" parent="ZM4ehFQc3kPoHvRmAT9D-1" vertex="1">
          <mxGeometry x="60" y="12" width="110" height="26" as="geometry" />
        </mxCell>
        <mxCell id="ZM4ehFQc3kPoHvRmAT9D-3" value="https://www.draw.io" style="strokeWidth=1;shadow=0;dashed=0;align=center;html=1;shape=mxgraph.mockup.containers.anchor;rSize=0;fontSize=17;fontColor=#666666;align=left;" parent="ZM4ehFQc3kPoHvRmAT9D-1" vertex="1">
          <mxGeometry x="130" y="60" width="250" height="26" as="geometry" />
        </mxCell>
        <mxCell id="ZM4ehFQc3kPoHvRmAT9D-4" value="" style="verticalLabelPosition=bottom;shadow=0;dashed=0;align=center;html=1;verticalAlign=top;strokeWidth=1;shape=mxgraph.mockup.graphics.lineChart;strokeColor=none;strokeColor2=#666666;strokeColor3=#008cff;strokeColor4=#dddddd;" parent="ZM4ehFQc3kPoHvRmAT9D-1" vertex="1">
          <mxGeometry x="150" y="120" width="550" height="70" as="geometry" />
        </mxCell>
        <mxCell id="ZM4ehFQc3kPoHvRmAT9D-5" value="" style="verticalLabelPosition=bottom;shadow=0;dashed=0;align=center;html=1;verticalAlign=top;strokeWidth=1;shape=mxgraph.mockup.containers.userMale;strokeColor=#666666;strokeColor2=#008cff;" parent="ZM4ehFQc3kPoHvRmAT9D-1" vertex="1">
          <mxGeometry x="40" y="120" width="80" height="40" as="geometry" />
        </mxCell>
        <mxCell id="ZM4ehFQc3kPoHvRmAT9D-18" value="N operators online" style="strokeWidth=1;shadow=0;dashed=0;align=center;html=1;shape=mxgraph.mockup.forms.rrect;rSize=0;strokeColor=#999999;fontColor=#666666;align=left;spacingLeft=5;resizeWidth=1;" parent="ZM4ehFQc3kPoHvRmAT9D-1" vertex="1">
          <mxGeometry width="110" height="25" relative="1" as="geometry">
            <mxPoint x="20" y="170" as="offset" />
          </mxGeometry>
        </mxCell>
        <mxCell id="ZM4ehFQc3kPoHvRmAT9D-19" value="Alerts" style="strokeWidth=1;shadow=0;dashed=0;align=center;html=1;shape=mxgraph.mockup.forms.rrect;rSize=0;fillColor=#eeeeee;strokeColor=#999999;gradientColor=#cccccc;align=left;spacingLeft=4;fontSize=17;fontColor=#666666;labelPosition=right;" parent="ZM4ehFQc3kPoHvRmAT9D-1" vertex="1">
          <mxGeometry x="690" y="132.5" width="15" height="15" as="geometry" />
        </mxCell>
        <mxCell id="ZM4ehFQc3kPoHvRmAT9D-20" value="Complete" style="strokeWidth=1;shadow=0;dashed=0;align=center;html=1;shape=mxgraph.mockup.forms.rrect;rSize=0;fillColor=#eeeeee;strokeColor=#999999;gradientColor=#cccccc;align=left;spacingLeft=4;fontSize=17;fontColor=#666666;labelPosition=right;" parent="ZM4ehFQc3kPoHvRmAT9D-1" vertex="1">
          <mxGeometry x="690" y="160" width="15" height="15" as="geometry" />
        </mxCell>
        <mxCell id="ZM4ehFQc3kPoHvRmAT9D-21" value="" style="strokeWidth=1;shadow=0;dashed=0;align=center;html=1;shape=mxgraph.mockup.buttons.multiButton;fillColor=#008cff;strokeColor=#666666;mainText=;subText=;" parent="ZM4ehFQc3kPoHvRmAT9D-1" vertex="1">
          <mxGeometry x="20" y="210" width="120" height="50" as="geometry" />
        </mxCell>
        <mxCell id="ZM4ehFQc3kPoHvRmAT9D-22" value="Get alert" style="strokeWidth=1;shadow=0;dashed=0;align=center;html=1;shape=mxgraph.mockup.anchor;fontSize=16;fontColor=#ffffff;fontStyle=1;whiteSpace=wrap;" parent="ZM4ehFQc3kPoHvRmAT9D-21" vertex="1">
          <mxGeometry y="8" width="120" height="20" as="geometry" />
        </mxCell>
        <mxCell id="ZM4ehFQc3kPoHvRmAT9D-23" value="100500 available" style="strokeWidth=1;shadow=0;dashed=0;align=center;html=1;shape=mxgraph.mockup.anchor;fontSize=12;fontColor=#ffffff;fontStyle=1;whiteSpace=wrap;" parent="ZM4ehFQc3kPoHvRmAT9D-21" vertex="1">
          <mxGeometry y="30" width="120" height="10" as="geometry" />
        </mxCell>
        <mxCell id="ZM4ehFQc3kPoHvRmAT9D-24" value="" style="verticalLabelPosition=bottom;shadow=0;dashed=0;align=center;html=1;verticalAlign=top;strokeWidth=1;shape=mxgraph.mockup.graphics.simpleIcon;strokeColor=#999999;" parent="ZM4ehFQc3kPoHvRmAT9D-1" vertex="1">
          <mxGeometry x="390" y="220" width="380" height="230" as="geometry" />
        </mxCell>
        <mxCell id="CZ6OLA4btKk-E8F1Epu5-10" value="customer" style="text;fontColor=#1F9BFD;fontSize=12;verticalAlign=middle;strokeColor=none;fillColor=none;" vertex="1" parent="ZM4ehFQc3kPoHvRmAT9D-1">
          <mxGeometry x="20" y="266" width="346" height="30" as="geometry" />
        </mxCell>
        <mxCell id="CZ6OLA4btKk-E8F1Epu5-11" value="F.Baggins" style="text;fontSize=16;verticalAlign=middle;strokeColor=none;fillColor=none;" vertex="1" parent="ZM4ehFQc3kPoHvRmAT9D-1">
          <mxGeometry x="20" y="286" width="346" height="30" as="geometry" />
        </mxCell>
        <mxCell id="CZ6OLA4btKk-E8F1Epu5-12" value="" style="dashed=0;shape=line;strokeWidth=2;noLabel=1;strokeColor=#1F9BFD;" vertex="1" parent="ZM4ehFQc3kPoHvRmAT9D-1">
          <mxGeometry x="20" y="311" width="346" height="10" as="geometry" />
        </mxCell>
        <mxCell id="CZ6OLA4btKk-E8F1Epu5-13" value="address" style="text;fontColor=#1F9BFD;fontSize=12;verticalAlign=middle;strokeColor=none;fillColor=none;" vertex="1" parent="ZM4ehFQc3kPoHvRmAT9D-1">
          <mxGeometry x="20" y="316" width="346" height="30" as="geometry" />
        </mxCell>
        <mxCell id="CZ6OLA4btKk-E8F1Epu5-14" value="The Shire" style="text;fontSize=16;verticalAlign=middle;strokeColor=none;fillColor=none;" vertex="1" parent="ZM4ehFQc3kPoHvRmAT9D-1">
          <mxGeometry x="20" y="336" width="346" height="30" as="geometry" />
        </mxCell>
        <mxCell id="CZ6OLA4btKk-E8F1Epu5-15" value="" style="dashed=0;shape=line;strokeWidth=2;noLabel=1;strokeColor=#1F9BFD;" vertex="1" parent="ZM4ehFQc3kPoHvRmAT9D-1">
          <mxGeometry x="20" y="361" width="346" height="10" as="geometry" />
        </mxCell>
        <mxCell id="CZ6OLA4btKk-E8F1Epu5-16" value="detector" style="text;fontColor=#1F9BFD;fontSize=12;verticalAlign=middle;strokeColor=none;fillColor=none;" vertex="1" parent="ZM4ehFQc3kPoHvRmAT9D-1">
          <mxGeometry x="20" y="361" width="346" height="30" as="geometry" />
        </mxCell>
        <mxCell id="CZ6OLA4btKk-E8F1Epu5-17" value="Motion detector" style="text;fontSize=16;verticalAlign=middle;strokeColor=none;fillColor=none;" vertex="1" parent="ZM4ehFQc3kPoHvRmAT9D-1">
          <mxGeometry x="20" y="381" width="346" height="30" as="geometry" />
        </mxCell>
        <mxCell id="CZ6OLA4btKk-E8F1Epu5-18" value="" style="dashed=0;shape=line;strokeWidth=2;noLabel=1;strokeColor=#1F9BFD;" vertex="1" parent="ZM4ehFQc3kPoHvRmAT9D-1">
          <mxGeometry x="20" y="406" width="346" height="10" as="geometry" />
        </mxCell>
        <mxCell id="CZ6OLA4btKk-E8F1Epu5-19" value="camera" style="text;fontColor=#1F9BFD;fontSize=12;verticalAlign=middle;strokeColor=none;fillColor=none;" vertex="1" parent="ZM4ehFQc3kPoHvRmAT9D-1">
          <mxGeometry x="20" y="411" width="346" height="30" as="geometry" />
        </mxCell>
        <mxCell id="CZ6OLA4btKk-E8F1Epu5-20" value="Camera 1" style="text;fontSize=16;verticalAlign=middle;strokeColor=none;fillColor=none;" vertex="1" parent="ZM4ehFQc3kPoHvRmAT9D-1">
          <mxGeometry x="20" y="431" width="346" height="30" as="geometry" />
        </mxCell>
        <mxCell id="CZ6OLA4btKk-E8F1Epu5-21" value="" style="dashed=0;shape=line;strokeWidth=2;noLabel=1;strokeColor=#1F9BFD;" vertex="1" parent="ZM4ehFQc3kPoHvRmAT9D-1">
          <mxGeometry x="20" y="456" width="346" height="10" as="geometry" />
        </mxCell>
        <mxCell id="CZ6OLA4btKk-E8F1Epu5-22" value="time" style="text;fontColor=#1F9BFD;fontSize=12;verticalAlign=middle;strokeColor=none;fillColor=none;" vertex="1" parent="ZM4ehFQc3kPoHvRmAT9D-1">
          <mxGeometry x="20" y="461" width="346" height="30" as="geometry" />
        </mxCell>
        <mxCell id="CZ6OLA4btKk-E8F1Epu5-23" value="2020-10-10 11:22 PM" style="text;fontSize=16;verticalAlign=middle;strokeColor=none;fillColor=none;" vertex="1" parent="ZM4ehFQc3kPoHvRmAT9D-1">
          <mxGeometry x="20" y="481" width="346" height="30" as="geometry" />
        </mxCell>
        <mxCell id="CZ6OLA4btKk-E8F1Epu5-24" value="" style="dashed=0;shape=line;strokeWidth=2;noLabel=1;strokeColor=#1F9BFD;" vertex="1" parent="ZM4ehFQc3kPoHvRmAT9D-1">
          <mxGeometry x="20" y="506" width="346" height="10" as="geometry" />
        </mxCell>
        <mxCell id="CZ6OLA4btKk-E8F1Epu5-25" value="Alarm" style="dashed=0;align=center;fontSize=12;shape=rect;strokeColor=none;fontStyle=1;shadow=1;fontColor=#ffffff;fillColor=#FF3333;" vertex="1" parent="ZM4ehFQc3kPoHvRmAT9D-1">
          <mxGeometry x="670" y="478" width="100" height="36" as="geometry" />
        </mxCell>
        <mxCell id="CZ6OLA4btKk-E8F1Epu5-26" value="Not alarm" style="dashed=0;align=center;fontSize=12;shape=rect;fillColor=#2196F3;strokeColor=none;fontStyle=1;shadow=1;fontColor=#ffffff;" vertex="1" parent="ZM4ehFQc3kPoHvRmAT9D-1">
          <mxGeometry x="550" y="478" width="100" height="36" as="geometry" />
        </mxCell>
      </root>
    </mxGraphModel>
  </diagram>
</mxfile>
